<?xml version="1.0" encoding="utf-8"?>
<!-- Generator: Adobe Illustrator 15.1.0, SVG Export Plug-In  -->
<!DOCTYPE svg PUBLIC "-//W3C//DTD SVG 1.1//EN" "http://www.w3.org/Graphics/SVG/1.1/DTD/svg11.dtd" [
	<!ENTITY ns_flows "http://ns.adobe.com/Flows/1.0/">
]>
<svg version="1.1"
	 xmlns="http://www.w3.org/2000/svg" xmlns:xlink="http://www.w3.org/1999/xlink" xmlns:a="http://ns.adobe.com/AdobeSVGViewerExtensions/3.0/"
	 x="0px" y="0px" width="19px" height="19px" viewBox="0 0 38 38" overflow="visible" enable-background="new 0 0 38 38"
	 xml:space="preserve">
<defs>
</defs>
<path fill="#FF0000" d="M23.824,18.875l12.9-12.9c1.367-1.367,1.367-3.583,0-4.95c-1.367-1.366-3.582-1.366-4.949,0l-12.9,12.9
	l-12.9-12.9c-1.367-1.366-3.583-1.366-4.95,0c-1.367,1.367-1.367,3.583,0,4.95l12.9,12.9l-12.9,12.9
	c-1.367,1.366-1.367,3.583,0,4.949c0.684,0.684,1.58,1.025,2.475,1.025s1.792-0.342,2.475-1.025l12.9-12.9l12.9,12.9
	c0.684,0.684,1.579,1.025,2.475,1.025s1.791-0.342,2.475-1.025c1.367-1.366,1.367-3.583,0-4.949L23.824,18.875z"/>
</svg>
