<svg width="63" height="63" viewBox="0 0 63 63" fill="none" xmlns="http://www.w3.org/2000/svg">
<g clip-path="url(#clip0)">
<path d="M62.8786 34.4101C62.3129 28.7205 59.7711 23.3567 55.7211 19.3066C52.2599 15.8456 48.0236 13.6215 43.566 12.6325V9.5061C45.3867 9.05316 46.74 7.40517 46.74 5.44635C46.74 3.13944 44.8632 1.2627 42.5563 1.2627H33.6968C31.3899 1.2627 29.5131 3.13944 29.5131 5.44635C29.5131 7.40505 30.8664 9.05304 32.6869 9.5061V12.6413C28.243 13.6344 24.0207 15.8554 20.5695 19.3067C19.8142 20.062 19.1177 20.8543 18.4802 21.6777C18.4493 21.6754 18.4184 21.673 18.3869 21.673H9.61836C8.93888 21.673 8.38787 22.2239 8.38787 22.9035C8.38787 23.5831 8.93888 24.134 9.61836 24.134H16.8059C15.9037 25.6444 15.1762 27.2307 14.6225 28.8635H1.23049C0.551013 28.8635 0 29.4144 0 30.094C0 30.7736 0.551013 31.3245 1.23049 31.3245H13.9272C13.5725 32.8812 13.369 34.4654 13.3165 36.0541H7.87512C7.19565 36.0541 6.64464 36.605 6.64464 37.2846C6.64464 37.9642 7.19565 38.5151 7.87512 38.5151H13.3557C13.4596 40.1078 13.7156 41.6922 14.124 43.2447H6.15244C5.47296 43.2447 4.92195 43.7956 4.92195 44.4752C4.92195 45.1548 5.47296 45.7057 6.15244 45.7057H14.9093C16.1164 48.8989 18.0029 51.8919 20.5695 54.4584C24.6234 58.5124 29.9928 61.0548 35.6882 61.6175C36.5011 61.6977 37.3145 61.7375 38.1269 61.7375C42.9285 61.7375 47.6691 60.3479 51.6916 57.7284C52.261 57.3576 52.4221 56.5953 52.0512 56.0258C51.6804 55.4563 50.9181 55.2953 50.3486 55.6661C41.5436 61.3998 29.7515 60.1601 22.3096 52.7183C13.5778 43.9865 13.5778 29.7789 22.3096 21.047C31.0413 12.3153 45.2489 12.3153 53.9808 21.047C61.4128 28.4791 62.6593 40.2612 56.9445 49.0619C56.5744 49.6318 56.7364 50.394 57.3063 50.764C57.8765 51.1341 58.6384 50.9721 59.0084 50.4021C62.0618 45.6998 63.4362 40.0205 62.8786 34.4101ZM31.9741 5.44648C31.9741 4.49654 32.7469 3.72379 33.6968 3.72379H42.5563C43.5062 3.72379 44.279 4.49654 44.279 5.44648C44.279 6.39641 43.5062 7.16916 42.5563 7.16916H42.3356H33.9174H33.6968C32.7469 7.16916 31.9741 6.39629 31.9741 5.44648ZM35.1479 12.2182V9.63014H41.1051V12.2138C39.1269 11.9785 37.1257 11.98 35.1479 12.2182Z" fill="#0F1F24"/>
<path d="M54.8516 52.3573C54.5267 52.3573 54.2105 52.489 53.9817 52.7178C53.7516 52.9467 53.6211 53.2642 53.6211 53.5878C53.6211 53.9114 53.7516 54.2288 53.9817 54.4577C54.2105 54.6878 54.5268 54.8182 54.8516 54.8182C55.1752 54.8182 55.4914 54.6878 55.7215 54.4577C55.9504 54.2288 56.082 53.9114 56.082 53.5878C56.082 53.2642 55.9505 52.9467 55.7215 52.7178C55.4914 52.489 55.1751 52.3573 54.8516 52.3573Z" fill="#0F1F24"/>
<path d="M38.1451 17.7939C27.6197 17.7939 19.0566 26.3569 19.0566 36.8824C19.0566 47.4079 27.6197 55.9708 38.1451 55.9708C48.6704 55.9708 57.2335 47.4079 57.2335 36.8824C57.2335 26.3569 48.6704 17.7939 38.1451 17.7939ZM38.1451 53.5098C28.9766 53.5098 21.5176 46.0508 21.5176 36.8824C21.5176 27.714 28.9766 20.2549 38.1451 20.2549C47.3136 20.2549 54.7725 27.714 54.7725 36.8824C54.7725 46.0508 47.3136 53.5098 38.1451 53.5098Z" fill="#0F1F24"/>
<path d="M45.9287 27.3587L39.8341 33.4531C39.3245 33.2011 38.7512 33.0588 38.1452 33.0588C37.539 33.0588 36.9659 33.2011 36.4562 33.4531L33.7286 30.7255C33.248 30.245 32.4691 30.245 31.9883 30.7255C31.5078 31.206 31.5078 31.9852 31.9883 32.4657L34.7159 35.1933C34.4638 35.703 34.3216 36.2763 34.3216 36.8823C34.3216 38.9906 36.0367 40.7059 38.1452 40.7059C40.2536 40.7059 41.9688 38.9906 41.9688 36.8823C41.9688 36.2763 41.8264 35.703 41.5744 35.1933L47.4901 29.2776L47.6689 29.0988C48.1494 28.6183 48.1494 27.8392 47.6689 27.3587C47.1884 26.8782 46.4095 26.8782 45.9287 27.3587ZM38.1452 38.245C37.3938 38.245 36.7825 37.6337 36.7825 36.8824C36.7825 36.1311 37.3938 35.5198 38.1452 35.5198C38.8965 35.5198 39.5078 36.1311 39.5078 36.8824C39.5078 37.6337 38.8965 38.245 38.1452 38.245Z" fill="#0F1F24"/>
<path d="M51.3012 35.6669H50.1611C49.4817 35.6669 48.9307 36.2178 48.9307 36.8973C48.9307 37.5769 49.4817 38.1278 50.1611 38.1278H51.3012C51.9806 38.1278 52.5316 37.5769 52.5316 36.8973C52.5316 36.2178 51.9806 35.6669 51.3012 35.6669Z" fill="#0F1F24"/>
<path d="M26.1292 35.6368H24.9893C24.3098 35.6368 23.7588 36.1877 23.7588 36.8673C23.7588 37.5469 24.3098 38.0978 24.9893 38.0978H26.1292C26.8086 38.0978 27.3596 37.5469 27.3596 36.8673C27.3596 36.1877 26.8086 35.6368 26.1292 35.6368Z" fill="#0F1F24"/>
<path d="M38.1602 26.0966C38.8396 26.0966 39.3906 25.5457 39.3906 24.8661V23.7262C39.3906 23.0466 38.8396 22.4957 38.1602 22.4957C37.4807 22.4957 36.9297 23.0466 36.9297 23.7262V24.8661C36.9297 25.5457 37.4807 26.0966 38.1602 26.0966Z" fill="#0F1F24"/>
<path d="M38.1299 47.6682C37.4504 47.6682 36.8994 48.2191 36.8994 48.8987V50.0386C36.8994 50.7182 37.4504 51.2691 38.1299 51.2691C38.8093 51.2691 39.3604 50.7182 39.3604 50.0386V48.8987C39.3604 48.2191 38.8093 47.6682 38.1299 47.6682Z" fill="#0F1F24"/>
<path d="M1.23047 43.2443C0.906855 43.2443 0.589395 43.3759 0.360527 43.6048C0.13166 43.8337 0 44.1511 0 44.4747C0 44.7996 0.131537 45.1158 0.360527 45.3447C0.589518 45.5735 0.906855 45.7052 1.23047 45.7052C1.55408 45.7052 1.87154 45.5735 2.10029 45.3447C2.32915 45.1158 2.46094 44.7983 2.46094 44.4747C2.46094 44.1511 2.32928 43.8337 2.10029 43.6048C1.87154 43.3759 1.55408 43.2443 1.23047 43.2443Z" fill="#0F1F24"/>
</g>
<defs>
<clipPath id="clip0">
<rect width="63" height="63" fill="white"/>
</clipPath>
</defs>
</svg>
