<?xml version="1.0" encoding="UTF-8"?><!DOCTYPE svg PUBLIC "-//W3C//DTD SVG 1.1//EN"
        "http://www.w3.org/Graphics/SVG/1.1/DTD/svg11.dtd">
<svg xmlns="http://www.w3.org/2000/svg" viewBox="0 0 571 286" fill="white">
    <path d="M76.977 65.164h27.061V92.22H76.977zM477.854 67.631h27.058v27.047h-27.058zM46.397 230.229c4.346 4.627 7.08 10.795 7.08 17.735a25.614 25.614 0 0 1-7.08 17.734c-4.137 4.557-10.305 7.501-16.754 7.501-6.728 0-12.898-2.944-17.175-7.501-4.345-4.556-6.938-10.796-6.938-17.734 0-6.94 2.593-13.108 6.938-17.735a23.402 23.402 0 0 1 17.175-7.501c6.449 0 12.617 2.875 16.754 7.501m-.912 17.735c0-4.767-1.893-9.184-4.767-12.268-2.944-3.154-6.868-4.977-11.075-4.977-4.486 0-8.412 1.822-11.355 4.977-2.946 3.084-4.768 7.501-4.768 12.268s1.822 9.183 4.768 12.197c2.943 3.154 6.869 5.047 11.355 5.047 4.207 0 8.131-1.893 11.075-5.047 2.874-3.015 4.767-7.431 4.767-12.197M82.646 282.593v-40.727c0-2.033 1.682-3.716 3.715-3.716 1.963 0 3.574 1.332 3.854 2.874 2.595-1.682 5.958-2.874 9.534-2.874 9.324 0 16.963 7.99 16.963 17.595 0 9.604-7.639 17.385-16.963 17.385-3.505 0-6.869-1.052-9.392-2.874v12.338c0 1.963-1.754 3.785-3.996 3.785-2.034-.001-3.715-1.823-3.715-3.786m7.71-26.849c0 2.734.91 5.398 2.732 7.011 1.754 1.962 4.067 2.943 6.66 2.943 2.383 0 4.766-.981 6.59-2.943 1.612-1.612 2.734-4.276 2.734-7.011 0-2.733-1.122-5.257-2.734-7.079-1.824-1.894-4.207-2.874-6.59-2.874-2.593 0-4.906.98-6.66 2.874-1.821 1.822-2.732 4.346-2.732 7.079M141.883 255.675c.071-9.534 7.5-17.525 17.105-17.525 9.112 0 16.333 6.8 16.893 16.264v.351c0 .14 0 .49-.071.631-.21 1.682-1.681 2.804-3.643 2.804h-22.293c.351 1.612 1.123 3.435 2.384 4.626 1.471 1.683 4.276 2.944 6.73 3.155 2.522.21 5.538-.421 7.29-1.753 1.473-1.542 4.346-1.332 5.258-.21.911.981 1.611 3.084 0 4.556-3.436 3.155-7.573 4.627-12.548 4.627-9.605-.072-17.033-7.993-17.105-17.526m7.641-3.436h19.839c-.702-2.804-4.276-6.939-10.375-7.43-5.958.281-8.903 4.556-9.464 7.43M232.386 252.73v16.754c0 2.032-1.611 3.715-3.645 3.715-1.961 0-3.714-1.683-3.714-3.715V252.73c0-3.926-3.295-7.08-7.291-7.08-3.926 0-7.01 3.154-7.01 7.08v16.754c0 .21 0 .42-.141.7-.349 1.683-1.892 3.015-3.715 3.015a3.694 3.694 0 0 1-3.713-3.715v-27.619a3.695 3.695 0 0 1 3.713-3.716c1.473 0 2.805.842 3.436 2.174 2.103-1.332 4.696-2.174 7.43-2.174 8.132 0 14.65 6.661 14.65 14.581M260.851 247.964c.07-13.88 11.706-25.166 25.727-25.236 6.169 0 11.777 2.033 16.193 5.468 1.682 1.402 1.963 3.855.701 5.608-1.402 1.752-3.996 2.033-5.607.771-3.085-2.524-6.941-3.855-11.287-3.855-4.835 0-9.323 1.962-12.618 5.047-3.154 3.225-5.117 7.431-5.117 12.197s1.963 9.112 5.117 12.197c3.295 3.084 7.782 5.047 12.618 5.047 4.346 0 8.131-1.332 11.287-3.855 1.611-1.191 4.205-.911 5.607.771 1.262 1.752.98 4.275-.701 5.607-4.416 3.435-10.024 5.468-16.193 5.468-14.021 0-25.658-11.286-25.727-25.235M354.019 241.865c0 1.963-1.612 3.715-3.715 3.715-1.613 0-3.015.421-4.207 1.332-1.332.841-2.383 2.033-3.224 3.365-1.684 2.243-2.524 4.906-2.875 5.888v13.319c0 2.032-1.75 3.715-3.854 3.715-2.033 0-3.715-1.683-3.715-3.715v-27.619c0-2.033 1.682-3.646 3.715-3.646 2.104 0 3.854 1.613 3.854 3.646v.49c.421-.49.981-1.051 1.472-1.401 2.314-1.543 5.328-2.805 8.834-2.735 2.102 0 3.715 1.613 3.715 3.646M407.227 255.744v13.74c0 2.032-1.683 3.715-3.714 3.715-1.824 0-3.225-1.332-3.646-3.015-2.664 1.893-5.818 3.015-9.323 3.015-4.766 0-8.902-1.963-11.916-5.117-3.014-3.225-4.767-7.57-4.767-12.338 0-4.836 1.753-9.183 4.767-12.337 3.014-3.225 7.15-5.258 11.916-5.258 3.505 0 6.659 1.192 9.323 3.085.422-1.753 1.822-3.085 3.646-3.085 2.031 0 3.714 1.683 3.714 3.786v13.809zm-7.431 0c0-2.943-1.051-5.467-2.732-7.22-1.684-1.893-4.066-2.874-6.521-2.874-2.522 0-4.905.981-6.519 2.874-1.683 1.753-2.664 4.276-2.664 7.22 0 2.874.981 5.398 2.664 7.221 1.613 1.752 3.996 2.733 6.519 2.733 2.454 0 4.837-.981 6.521-2.733 1.681-1.822 2.732-4.347 2.732-7.221M448.59 235.837v.981h2.104a3.842 3.842 0 0 1 3.854 3.854c0 2.104-1.752 3.855-3.854 3.855h-2.104v24.746a3.843 3.843 0 0 1-3.854 3.854 3.843 3.843 0 0 1-3.855-3.854v-24.746h-1.823c-2.173 0-3.925-1.752-3.925-3.855 0-2.173 1.752-3.854 3.925-3.854h1.823v-.981c0-2.594.28-4.837 1.331-6.87.982-2.103 2.943-3.715 5.047-4.346 1.402-.421 2.734-.562 4.206-.562 2.104 0 3.854 1.753 3.854 3.855 0 2.174-1.751 3.926-3.854 3.926-.911 0-1.541.07-1.823.21-.28.07-.35.141-.419.211-.072.001-.633.982-.633 3.576M494.368 242.005c0 2.104-1.822 3.855-3.925 3.855h-1.753v19.558c2.174 0 3.855 1.753 3.855 3.926s-1.682 3.855-3.855 3.855c-4.275 0-7.78-3.505-7.78-7.781V245.86h-2.033a3.842 3.842 0 0 1-3.854-3.855c0-2.173 1.682-3.854 3.854-3.854h2.033v-10.165c0-2.173 1.753-3.855 3.925-3.855 2.173 0 3.855 1.683 3.855 3.855v10.165h1.753c2.103-.001 3.925 1.681 3.925 3.854M554.919 266.754a4.445 4.445 0 0 1-4.451 4.441h-23.084c-2.453 0-4.44-1.992-4.44-4.441s1.987-4.441 4.44-4.441h23.084a4.445 4.445 0 0 1 4.451 4.441"/>
    <path d="M403.338 0v63.936H167.241V0H0v162.31h167.241V78.691h236.097v83.618h167.235V0H403.338zM152.485 147.554H14.756V14.756h137.729v132.798zm403.332 0H418.094V14.756h137.724v132.798z"/>
    <path d="M240.433 126.174c11.104 16.314 27.653 29.83 48.293 29.614 19.965-.208 35.668-14.958 43.875-32.072 3.534-7.37-7.449-13.835-11-6.43-6.18 12.885-16.641 24.641-31.759 25.717-16.26 1.157-29.824-10.647-38.409-23.259-4.593-6.746-15.638-.382-11 6.43"/>
</svg>
