<?xml version="1.0" encoding="UTF-8"?><!DOCTYPE svg PUBLIC "-//W3C//DTD SVG 1.1//EN"
        "http://www.w3.org/Graphics/SVG/1.1/DTD/svg11.dtd">
<svg xmlns="http://www.w3.org/2000/svg">
    <symbol id="opencraft_icon_table-01" viewBox="0 0 116 77">
        <path d="M93.922 76.594H22.426C10.06 76.594 0 66.534 0 54.169c0-8.917 5.166-16.843 13.244-20.46.669-11.748 10.51-21.146 22.384-21.146 3.469 0 6.889.806 9.98 2.343C50.796 5.673 60.431 0 71.11 0c16.135 0 29.261 13.126 29.261 29.26a29.39 29.39 0 0 1-.195 3.375c9.45 2.75 16.173 11.591 16.172 21.534 0 12.365-10.061 22.425-22.426 22.425zM35.628 15.563c-10.573 0-19.284 8.602-19.419 19.174l-.013 1.004-.934.371C7.813 39.07 3 46.158 3 54.169c0 10.711 8.714 19.425 19.426 19.425h71.496c10.712 0 19.426-8.714 19.426-19.425.001-9.015-6.379-16.984-15.169-18.951l-1.381-.309.228-1.396c.229-1.408.346-2.838.346-4.253C97.371 14.78 85.591 3 71.11 3 61.059 3 52.039 8.599 47.57 17.612l-.715 1.443-1.389-.817a19.428 19.428 0 0 0-9.838-2.675z"/>
        <path d="M52.56 60.566a1.5 1.5 0 0 1-1.061-.439L36.871 45.498a1.5 1.5 0 1 1 2.121-2.121l13.469 13.47L78.896 25.28a1.5 1.5 0 0 1 2.301 1.926L53.709 60.029c-.27.323-.664.518-1.084.536l-.065.001z"/>
    </symbol>
    <symbol id="opencraft_icon_table-02" viewBox="0 0 82 82">
        <path d="M44.165 3l2.146 7.193a2.998 2.998 0 0 0 1.724 1.914l8.03 3.336a3.01 3.01 0 0 0 2.578-.13l6.602-3.572 2.35 2.346 2.349 2.351-3.574 6.602a3 3 0 0 0-.134 2.573l3.319 8.039a3 3 0 0 0 1.917 1.73l7.191 2.141V44.165l-7.19 2.143a3.004 3.004 0 0 0-1.915 1.725l-3.336 8.03c-.349.836-.3 1.784.132 2.58l3.57 6.601-2.35 2.351-2.348 2.347-6.604-3.571a2.992 2.992 0 0 0-1.427-.359c-.388 0-.778.073-1.146.228l-8.036 3.32a2.986 2.986 0 0 0-1.729 1.916l-2.144 7.191h-6.641l-2.143-7.19a3.001 3.001 0 0 0-1.726-1.914l-8.028-3.336a3.014 3.014 0 0 0-2.578.131l-6.603 3.572-2.348-2.35-2.352-2.35 3.573-6.603a2.996 2.996 0 0 0 .133-2.571L12.11 48.02a2.994 2.994 0 0 0-1.916-1.729L3 44.146v-6.643l7.193-2.143a2.999 2.999 0 0 0 1.914-1.723l3.336-8.032a2.997 2.997 0 0 0-.132-2.578l-3.571-6.601 2.348-2.348 2.349-2.349 6.602 3.573a3.024 3.024 0 0 0 2.574.133l8.038-3.321a2.996 2.996 0 0 0 1.729-1.917l2.143-7.192h6.643M46.401 0H35.284l-2.779 9.336-8.038 3.32-8.569-4.636-3.93 3.931-3.93 3.928 4.636 8.568-3.336 8.032L0 35.26v11.115l9.338 2.783 3.318 8.035-4.636 8.569 3.931 3.932 3.93 3.93 8.568-4.635 8.03 3.336 2.781 9.336h11.116l2.782-9.336 8.038-3.32 8.568 4.637 3.93-3.93 3.931-3.932-4.636-8.568 3.336-8.029 9.336-2.779V35.284l-9.337-2.779-3.317-8.037 4.636-8.569-3.929-3.931-3.934-3.93-8.565 4.636-8.031-3.337L46.401 0z"/>
        <path d="M40.833 25.086c8.683 0 15.744 7.063 15.744 15.744 0 8.682-7.062 15.742-15.744 15.742-8.682 0-15.742-7.062-15.742-15.742-.003-8.681 7.059-15.744 15.742-15.744m0-3c-10.353 0-18.742 8.395-18.742 18.744 0 10.351 8.391 18.742 18.742 18.742 10.354 0 18.744-8.393 18.744-18.742-.001-10.351-8.392-18.744-18.744-18.744"/>
    </symbol>
    <symbol id="opencraft_icon_table-03" viewBox="0 0 107 82">
        <path d="M19.438 69.388a1.5 1.5 0 0 1-1.499-1.464l-.278-11.616H3.056A3.058 3.058 0 0 1 0 53.255V3.054A3.059 3.059 0 0 1 3.056 0h77.77a3.057 3.057 0 0 1 3.053 3.054v31.641a1.5 1.5 0 1 1-3 0V3.054L3.056 3 3 53.255l16.125.053a1.5 1.5 0 0 1 1.5 1.464l.237 9.886 12.594-10.98c.273-.238.624-.369.986-.369h14.27a1.5 1.5 0 1 1 0 3H35.003l-14.579 12.71a1.504 1.504 0 0 1-.986.369z"/>
        <path d="M93.482 82.331c-.355 0-.707-.127-.985-.369l-10.004-8.719H50.818a2.582 2.582 0 0 1-2.579-2.58V35.771a2.58 2.58 0 0 1 2.579-2.576h54.05a2.58 2.58 0 0 1 2.577 2.576v34.892a2.581 2.581 0 0 1-2.577 2.58h-9.705l-.181 7.623a1.503 1.503 0 0 1-1.5 1.465zM51.239 70.243h31.815c.362 0 .712.131.985.369l8.019 6.988.14-5.893a1.502 1.502 0 0 1 1.5-1.465h10.747V36.194H51.239v34.049z"/>
    </symbol>
    <symbol id="opencraft_logo" viewBox="0 0 571 286">
        <path d="M76.977 65.164h27.061V92.22H76.977zM477.854 67.631h27.058v27.047h-27.058zM46.397 230.229c4.346 4.627 7.08 10.795 7.08 17.735a25.614 25.614 0 0 1-7.08 17.734c-4.137 4.557-10.305 7.501-16.754 7.501-6.728 0-12.898-2.944-17.175-7.501-4.345-4.556-6.938-10.796-6.938-17.734 0-6.94 2.593-13.108 6.938-17.735a23.402 23.402 0 0 1 17.175-7.501c6.449 0 12.617 2.875 16.754 7.501m-.912 17.735c0-4.767-1.893-9.184-4.767-12.268-2.944-3.154-6.868-4.977-11.075-4.977-4.486 0-8.412 1.822-11.355 4.977-2.946 3.084-4.768 7.501-4.768 12.268s1.822 9.183 4.768 12.197c2.943 3.154 6.869 5.047 11.355 5.047 4.207 0 8.131-1.893 11.075-5.047 2.874-3.015 4.767-7.431 4.767-12.197M82.646 282.593v-40.727c0-2.033 1.682-3.716 3.715-3.716 1.963 0 3.574 1.332 3.854 2.874 2.595-1.682 5.958-2.874 9.534-2.874 9.324 0 16.963 7.99 16.963 17.595 0 9.604-7.639 17.385-16.963 17.385-3.505 0-6.869-1.052-9.392-2.874v12.338c0 1.963-1.754 3.785-3.996 3.785-2.034-.001-3.715-1.823-3.715-3.786m7.71-26.849c0 2.734.91 5.398 2.732 7.011 1.754 1.962 4.067 2.943 6.66 2.943 2.383 0 4.766-.981 6.59-2.943 1.612-1.612 2.734-4.276 2.734-7.011 0-2.733-1.122-5.257-2.734-7.079-1.824-1.894-4.207-2.874-6.59-2.874-2.593 0-4.906.98-6.66 2.874-1.821 1.822-2.732 4.346-2.732 7.079M141.883 255.675c.071-9.534 7.5-17.525 17.105-17.525 9.112 0 16.333 6.8 16.893 16.264v.351c0 .14 0 .49-.071.631-.21 1.682-1.681 2.804-3.643 2.804h-22.293c.351 1.612 1.123 3.435 2.384 4.626 1.471 1.683 4.276 2.944 6.73 3.155 2.522.21 5.538-.421 7.29-1.753 1.473-1.542 4.346-1.332 5.258-.21.911.981 1.611 3.084 0 4.556-3.436 3.155-7.573 4.627-12.548 4.627-9.605-.072-17.033-7.993-17.105-17.526m7.641-3.436h19.839c-.702-2.804-4.276-6.939-10.375-7.43-5.958.281-8.903 4.556-9.464 7.43M232.386 252.73v16.754c0 2.032-1.611 3.715-3.645 3.715-1.961 0-3.714-1.683-3.714-3.715V252.73c0-3.926-3.295-7.08-7.291-7.08-3.926 0-7.01 3.154-7.01 7.08v16.754c0 .21 0 .42-.141.7-.349 1.683-1.892 3.015-3.715 3.015a3.694 3.694 0 0 1-3.713-3.715v-27.619a3.695 3.695 0 0 1 3.713-3.716c1.473 0 2.805.842 3.436 2.174 2.103-1.332 4.696-2.174 7.43-2.174 8.132 0 14.65 6.661 14.65 14.581M260.851 247.964c.07-13.88 11.706-25.166 25.727-25.236 6.169 0 11.777 2.033 16.193 5.468 1.682 1.402 1.963 3.855.701 5.608-1.402 1.752-3.996 2.033-5.607.771-3.085-2.524-6.941-3.855-11.287-3.855-4.835 0-9.323 1.962-12.618 5.047-3.154 3.225-5.117 7.431-5.117 12.197s1.963 9.112 5.117 12.197c3.295 3.084 7.782 5.047 12.618 5.047 4.346 0 8.131-1.332 11.287-3.855 1.611-1.191 4.205-.911 5.607.771 1.262 1.752.98 4.275-.701 5.607-4.416 3.435-10.024 5.468-16.193 5.468-14.021 0-25.658-11.286-25.727-25.235M354.019 241.865c0 1.963-1.612 3.715-3.715 3.715-1.613 0-3.015.421-4.207 1.332-1.332.841-2.383 2.033-3.224 3.365-1.684 2.243-2.524 4.906-2.875 5.888v13.319c0 2.032-1.75 3.715-3.854 3.715-2.033 0-3.715-1.683-3.715-3.715v-27.619c0-2.033 1.682-3.646 3.715-3.646 2.104 0 3.854 1.613 3.854 3.646v.49c.421-.49.981-1.051 1.472-1.401 2.314-1.543 5.328-2.805 8.834-2.735 2.102 0 3.715 1.613 3.715 3.646M407.227 255.744v13.74c0 2.032-1.683 3.715-3.714 3.715-1.824 0-3.225-1.332-3.646-3.015-2.664 1.893-5.818 3.015-9.323 3.015-4.766 0-8.902-1.963-11.916-5.117-3.014-3.225-4.767-7.57-4.767-12.338 0-4.836 1.753-9.183 4.767-12.337 3.014-3.225 7.15-5.258 11.916-5.258 3.505 0 6.659 1.192 9.323 3.085.422-1.753 1.822-3.085 3.646-3.085 2.031 0 3.714 1.683 3.714 3.786v13.809zm-7.431 0c0-2.943-1.051-5.467-2.732-7.22-1.684-1.893-4.066-2.874-6.521-2.874-2.522 0-4.905.981-6.519 2.874-1.683 1.753-2.664 4.276-2.664 7.22 0 2.874.981 5.398 2.664 7.221 1.613 1.752 3.996 2.733 6.519 2.733 2.454 0 4.837-.981 6.521-2.733 1.681-1.822 2.732-4.347 2.732-7.221M448.59 235.837v.981h2.104a3.842 3.842 0 0 1 3.854 3.854c0 2.104-1.752 3.855-3.854 3.855h-2.104v24.746a3.843 3.843 0 0 1-3.854 3.854 3.843 3.843 0 0 1-3.855-3.854v-24.746h-1.823c-2.173 0-3.925-1.752-3.925-3.855 0-2.173 1.752-3.854 3.925-3.854h1.823v-.981c0-2.594.28-4.837 1.331-6.87.982-2.103 2.943-3.715 5.047-4.346 1.402-.421 2.734-.562 4.206-.562 2.104 0 3.854 1.753 3.854 3.855 0 2.174-1.751 3.926-3.854 3.926-.911 0-1.541.07-1.823.21-.28.07-.35.141-.419.211-.072.001-.633.982-.633 3.576M494.368 242.005c0 2.104-1.822 3.855-3.925 3.855h-1.753v19.558c2.174 0 3.855 1.753 3.855 3.926s-1.682 3.855-3.855 3.855c-4.275 0-7.78-3.505-7.78-7.781V245.86h-2.033a3.842 3.842 0 0 1-3.854-3.855c0-2.173 1.682-3.854 3.854-3.854h2.033v-10.165c0-2.173 1.753-3.855 3.925-3.855 2.173 0 3.855 1.683 3.855 3.855v10.165h1.753c2.103-.001 3.925 1.681 3.925 3.854M554.919 266.754a4.445 4.445 0 0 1-4.451 4.441h-23.084c-2.453 0-4.44-1.992-4.44-4.441s1.987-4.441 4.44-4.441h23.084a4.445 4.445 0 0 1 4.451 4.441"/>
        <path d="M403.338 0v63.936H167.241V0H0v162.31h167.241V78.691h236.097v83.618h167.235V0H403.338zM152.485 147.554H14.756V14.756h137.729v132.798zm403.332 0H418.094V14.756h137.724v132.798z"/>
        <path d="M240.433 126.174c11.104 16.314 27.653 29.83 48.293 29.614 19.965-.208 35.668-14.958 43.875-32.072 3.534-7.37-7.449-13.835-11-6.43-6.18 12.885-16.641 24.641-31.759 25.717-16.26 1.157-29.824-10.647-38.409-23.259-4.593-6.746-15.638-.382-11 6.43"/>
    </symbol>
</svg>